<svg xmlns="http://www.w3.org/2000/svg" width="120" height="121" viewBox="0 0 120 121">
    <g fill="none" fill-rule="evenodd">
        <path fill="#0F3674" d="M0 0h120v12.414H0z"/>
        <path fill="#F5F5F5" d="M4.138 12.414h111.724V99.31H4.138z"/>
        <path stroke="#06D6A0" stroke-linecap="round" stroke-width="2" d="M18.62 50.114a8.276 8.276 0 0 0 14.597 5.343c1.926-2.278 1.444-5.74-.91-7.57l-10.82-8.417c-2.355-1.831-2.837-5.293-.911-7.57a8.276 8.276 0 0 1 14.597 5.342m-8.276-11.955v3.679m0 29.424v3.679"/>
        <path fill="#F0635C" d="M103.448 31.034H86.897a2.067 2.067 0 0 1-2.07-2.068c0-1.145.925-2.07 2.07-2.07h16.551c1.144 0 2.07.925 2.07 2.07a2.067 2.067 0 0 1-2.07 2.068"/>
        <path fill="#F0EC19" d="M103.448 43.448H72.414a2.067 2.067 0 0 1-2.07-2.069c0-1.144.926-2.069 2.07-2.069h31.034c1.144 0 2.07.925 2.07 2.07a2.067 2.067 0 0 1-2.07 2.068"/>
        <path fill="#EFAE36" d="M103.448 55.862H78.621a2.067 2.067 0 0 1-2.07-2.069c0-1.144.926-2.069 2.07-2.069h24.827c1.144 0 2.07.925 2.07 2.07a2.067 2.067 0 0 1-2.07 2.068"/>
        <path fill="#EF3E36" fill-opacity=".8" d="M103.448 68.276H93.103a2.067 2.067 0 0 1-2.069-2.07c0-1.143.925-2.068 2.07-2.068h10.344c1.144 0 2.07.925 2.07 2.069a2.067 2.067 0 0 1-2.07 2.069"/>
        <path fill="#EF3E36" d="M103.448 82.759H86.897a2.067 2.067 0 0 1-2.07-2.07c0-1.143.925-2.068 2.07-2.068h16.551c1.144 0 2.07.925 2.07 2.069a2.067 2.067 0 0 1-2.07 2.069"/>
        <path fill="#BDC8D9" fill-rule="nonzero" d="M18.62 86.897h16.552a2.069 2.069 0 1 0 0-4.138H18.621a2.069 2.069 0 1 0 0 4.138zm20.69-10.345h6.207a2.069 2.069 0 1 0 0-4.138H39.31a2.069 2.069 0 1 0 0 4.138zm-20.69 0h4.139a2.069 2.069 0 1 0 0-4.138H18.62a2.069 2.069 0 1 0 0 4.138zm82.76-53.793v64.138a2.069 2.069 0 0 0 4.137 0V22.759a2.069 2.069 0 1 0-4.138 0z"/>
        <path stroke="#0F3674" stroke-linecap="round" stroke-width="2" d="M0 99.31h120H0z"/>
        <circle cx="31.034" cy="74.483" r="2.069" fill="#BDC8D9"/>
        <circle cx="45.517" cy="84.828" r="2.069" fill="#BDC8D9"/>
        <path stroke="#0F3674" stroke-linecap="round" stroke-width="2" d="M60 99.31v6.207-6.207zM66.207 113.793a6.207 6.207 0 1 1-12.414 0 6.207 6.207 0 1 1 12.414 0z"/>
    </g>
</svg>
