<svg xmlns="http://www.w3.org/2000/svg" width="100" height="22" viewBox="0 0 100 22">
    <defs>
        <linearGradient id="a" x1="0%" y1="50%" y2="50%">
            <stop offset="0%" stop-color="#154CA3"/>
            <stop offset="100%" stop-color="#1E6CE8"/>
        </linearGradient>
    </defs>
    <path fill="url(#a)" fill-rule="evenodd" d="M171.302 40.66h1.487c.837 0 1.301-.465 1.301-1.3V26.302l9.948 13.553c.434.557.93.805 1.611.805h.775c.837 0 1.332-.465 1.332-1.3V20.3c0-.836-.495-1.3-1.332-1.3h-1.488c-.836 0-1.301.464-1.301 1.3v12.964l-9.916-13.46c-.403-.556-.93-.804-1.612-.804h-.805c-.837 0-1.302.464-1.302 1.3v19.06c0 .835.465 1.3 1.302 1.3zm26.805.34c2.417 0 4.276-1.145 4.989-3.125v1.485c0 .835.496 1.3 1.332 1.3h1.364c.836 0 1.301-.465 1.301-1.3V26.271c0-.835-.465-1.33-1.301-1.33h-1.364c-.836 0-1.332.495-1.332 1.33v6.375c0 3.805-2.448 5.012-4.06 5.012-1.642 0-2.82-1.237-2.82-3.93v-7.457c0-.835-.465-1.33-1.301-1.33h-1.364c-.836 0-1.332.495-1.332 1.33v7.643c0 4.301 2.045 7.086 5.888 7.086zm14.564-.34h1.364c.836 0 1.332-.465 1.332-1.3v-6.436c0-3.837 2.045-4.982 3.533-4.982 1.55 0 2.696 1.207 2.696 3.868v7.55c0 .835.465 1.3 1.301 1.3h1.364c.837 0 1.332-.465 1.332-1.3v-6.683c.093-3.714 2.139-4.735 3.533-4.735 1.55 0 2.665 1.207 2.665 3.868v7.55c0 .835.496 1.3 1.333 1.3h1.363c.837 0 1.302-.465 1.302-1.3v-7.643c0-4.3-1.984-7.116-5.888-7.116-1.828 0-3.78.464-5.206 3.001-1.085-2.352-3.068-3.001-4.741-3.001-2.108 0-3.967 1.113-4.587 3.125V26.27c0-.835-.496-1.33-1.332-1.33h-1.364c-.836 0-1.301.495-1.301 1.33v13.09c0 .834.465 1.299 1.301 1.299zm34.583.34c-4.803 0-8.49-3.651-8.49-8.2 0-4.517 3.687-8.2 8.49-8.2 4.804 0 8.522 3.714 8.522 8.2 0 4.549-3.718 8.2-8.522 8.2zm0-3.342c2.603 0 4.649-2.135 4.649-4.827 0-2.723-2.046-4.889-4.649-4.889s-4.648 2.166-4.648 4.89c0 2.691 2.045 4.826 4.648 4.826zM263.988 41c3.223 0 6.012-1.67 6.012-4.827-.031-1.795-1.023-3.62-4.152-4.61l-2.108-.743c-.867-.279-1.611-.712-1.611-1.547 0-.897.713-1.64 1.921-1.64.62 0 1.24.155 1.705.712.495.526.898.804 1.642.618l.713-.185c.867-.217 1.301-.867.774-1.671-1.084-1.857-2.913-2.506-4.896-2.506-3.254 0-5.547 2.042-5.547 4.827 0 2.568 2.17 3.805 4.184 4.424l2.014.712c1.023.371 1.673.804 1.673 1.64 0 .99-.96 1.733-2.324 1.733-1.084 0-2.045-.433-2.603-1.114-.527-.588-.898-.928-1.642-.743l-.806.186c-.837.216-1.27.804-.868 1.64 1.054 2.042 3.285 3.094 5.92 3.094z" transform="translate(-170 -19)"/>
</svg>
