<svg xmlns="http://www.w3.org/2000/svg" width="139" height="120" viewBox="0 0 139 120">
    <g fill="none" fill-rule="evenodd">
        <path fill="#34373C" d="M4.793 110.4h19.173v9.6H4.793zM115.034 110.4h19.173v9.6h-19.173z"/>
        <path fill="#585B5F" d="M0 0h139v110.4H0z"/>
        <path fill="#9399A4" d="M119.828 19.2H139v9.6h-19.172zM119.828 81.6H139v9.6h-19.172z"/>
        <path fill="#F5F5F5" d="M119.828 81.6h9.586V28.8h-9.586v-9.6h9.586v-7.18c0-1.338-1.081-2.42-2.416-2.42H12.002a2.417 2.417 0 0 0-2.416 2.42v86.36c0 1.338 1.081 2.42 2.416 2.42h114.996a2.417 2.417 0 0 0 2.416-2.42V91.2h-9.586v-9.6z"/>
        <path fill="#BDC8D9" d="M71.897 52.8h-9.778a16.718 16.718 0 0 0-3.166-7.642l6.916-6.928a2.4 2.4 0 0 0 0-3.394 2.391 2.391 0 0 0-3.389 0l-6.916 6.929a16.655 16.655 0 0 0-7.633-3.173V28.8a2.398 2.398 0 1 0-4.793 0v9.792a16.655 16.655 0 0 0-7.633 3.173l-6.917-6.929a2.391 2.391 0 0 0-3.388 0 2.4 2.4 0 0 0 0 3.394l6.916 6.928A16.718 16.718 0 0 0 28.95 52.8h-9.778a2.398 2.398 0 0 0-2.396 2.4c0 1.327 1.074 2.4 2.396 2.4h9.778a16.707 16.707 0 0 0 3.166 7.642L25.2 72.17a2.4 2.4 0 0 0 1.694 4.097c.614 0 1.225-.233 1.694-.703l6.917-6.929a16.655 16.655 0 0 0 7.633 3.173V81.6a2.398 2.398 0 1 0 4.793 0v-9.792a16.655 16.655 0 0 0 7.633-3.173l6.916 6.929c.47.47 1.084.703 1.695.703a2.4 2.4 0 0 0 1.694-4.097l-6.916-6.928a16.707 16.707 0 0 0 3.166-7.642h9.778a2.398 2.398 0 0 0 2.396-2.4c0-1.327-1.074-2.4-2.396-2.4zM45.534 67.2c-6.607 0-11.982-5.383-11.982-12s5.375-12 11.982-12c6.608 0 11.983 5.383 11.983 12s-5.375 12-11.983 12z"/>
        <path fill="#0F3674" d="M86.276 55.2a2.398 2.398 0 0 0-2.397 2.4V60a2.398 2.398 0 1 0 4.793 0v-2.4c0-1.327-1.073-2.4-2.396-2.4M98.259 55.2a2.398 2.398 0 0 0-2.397 2.4V60a2.398 2.398 0 1 0 4.793 0v-2.4c0-1.327-1.073-2.4-2.396-2.4M110.241 55.2a2.398 2.398 0 0 0-2.396 2.4V60a2.398 2.398 0 1 0 4.793 0v-2.4c0-1.327-1.071-2.4-2.397-2.4M86.276 64.8a2.398 2.398 0 0 0-2.397 2.4v2.4a2.398 2.398 0 1 0 4.793 0v-2.4c0-1.327-1.073-2.4-2.396-2.4M98.259 64.8a2.398 2.398 0 0 0-2.397 2.4v2.4a2.398 2.398 0 1 0 4.793 0v-2.4c0-1.327-1.073-2.4-2.396-2.4M110.241 64.8a2.398 2.398 0 0 0-2.396 2.4v2.4a2.398 2.398 0 1 0 4.793 0v-2.4c0-1.327-1.071-2.4-2.397-2.4M86.276 74.4a2.398 2.398 0 0 0-2.397 2.4v2.4a2.398 2.398 0 1 0 4.793 0v-2.4c0-1.327-1.073-2.4-2.396-2.4M98.259 74.4a2.398 2.398 0 0 0-2.397 2.4v2.4a2.398 2.398 0 1 0 4.793 0v-2.4c0-1.327-1.073-2.4-2.396-2.4M110.241 74.4a2.398 2.398 0 0 0-2.396 2.4v2.4a2.398 2.398 0 1 0 4.793 0v-2.4c0-1.327-1.071-2.4-2.397-2.4"/>
        <path fill="#19B97E" d="M83.88 36h28.758v9.6H83.879z"/>
        <path fill="#585B5F" d="M47.931 55.2a2.4 2.4 0 0 1-2.397 2.4 2.4 2.4 0 0 1-2.396-2.4 2.4 2.4 0 0 1 2.396-2.4 2.4 2.4 0 0 1 2.397 2.4"/>
    </g>
</svg>
