<svg xmlns="http://www.w3.org/2000/svg" width="120" height="120" viewBox="0 0 120 120">
    <g fill="none" fill-rule="evenodd">
        <path fill="#F5F5F5" d="M120 60c0 33.137-26.863 60-60 60S0 93.137 0 60 26.863 0 60 0s60 26.863 60 60"/>
        <path fill="#1CD18F" fill-rule="nonzero" d="M88.966 105.977c0 5.713 4.631 10.344 10.344 10.344a10.32 10.32 0 0 0 7.9-3.666c2.68-3.169 2.073-7.98-1.22-10.54L95.17 93.7c-1.467-1.141-1.734-3.26-.6-4.602a6.207 6.207 0 0 1 10.948 4.006 2.069 2.069 0 0 0 4.137 0c0-5.713-4.632-10.344-10.345-10.344a10.327 10.327 0 0 0-7.9 3.666c-2.68 3.169-2.072 7.98 1.22 10.54l10.82 8.416c1.468 1.141 1.735 3.26.601 4.602a6.207 6.207 0 0 1-10.948-4.006 2.069 2.069 0 1 0-4.137 0zM97.24 80.69v37.241a2.069 2.069 0 1 0 4.138 0V80.69a2.069 2.069 0 1 0-4.138 0z"/>
        <path fill="#1E6CE8" d="M62.069 51.768V30.784a2.068 2.068 0 1 0-4.138 0v20.984a8.265 8.265 0 0 0-5.913 5.913H37.24a2.068 2.068 0 1 0 0 4.138h14.777c.925 3.558 4.138 6.207 7.982 6.207 4.564 0 8.276-3.712 8.276-8.276 0-3.847-2.648-7.058-6.207-7.982zM60 63.888a4.143 4.143 0 0 1-4.138-4.138A4.142 4.142 0 0 1 60 55.612a4.142 4.142 0 0 1 4.138 4.138A4.143 4.143 0 0 1 60 63.888z"/>
        <path stroke="#0F3674" stroke-linecap="round" stroke-width="2" d="M60 14.232v2.07m0 86.896v2.069m45.517-45.517h-2.069m-86.896 0h-2.07m77.703-32.187l-1.463 1.465M29.278 90.472l-1.463 1.462m1.463-62.906l-1.463-1.465"/>
    </g>
</svg>
